<?xml version="1.0" encoding="iso-8859-1"?>
<!-- Generator: Adobe Illustrator 19.0.0, SVG Export Plug-In . SVG Version: 6.00 Build 0)  -->
<svg version="1.1" id="Layer_1" xmlns="http://www.w3.org/2000/svg" xmlns:xlink="http://www.w3.org/1999/xlink" x="0px" y="0px"
	 viewBox="0 0 496.16 496.16" style="enable-background:new 0 0 496.16 496.16;" xml:space="preserve">
<path style="fill:#D8DBBA;" d="M248.083,0.004C111.071,0.004,0,111.064,0,248.086c0,137.001,111.07,248.07,248.083,248.07
	c137.006,0,248.076-111.069,248.076-248.07C496.159,111.063,385.089,0.004,248.083,0.004z"/>
<path style="fill:#9B7842;" d="M495.371,228.265l-94.816-41.641c-6.183-2.016-7.201-12.157-10.884-13.83
	c-3.685-1.67-6.086,0.063-8.818-0.219c-30.206-3.112-36.777-30.245-67.362-32.969l-21.768,38.72
	c16.45,14.84,50.006,12.292,66.652,26.93c2.803,2.466,2.955,8.045,6.808,9.025c5.348,1.361,10.447-0.443,13.604-2.766l117.023,49.77
	c0.229-4.371,0.35-8.771,0.35-13.199C496.159,241.413,495.888,234.805,495.371,228.265z"/>
<g>
	<path style="fill:#AF8B5A;" d="M367.902,197.686c7.372-10.14,9.071-14.635,16.328-22.125
		C373.878,177.945,372.961,189.918,367.902,197.686z"/>
	<path style="fill:#A57C46;" d="M248.005,44.726c-14.29,6.53-2.991,40.203-8.166,47.019l-35.368,71.909
		c0,0-13.143,6.197-23.035,16.087c-16.612,16.613,7.987,44.283,31.525,56.255c29.113,14.807,69.297,19.153,74.588-0.94
		c2.347-8.917,0.945-19.436-1.457-29.917l38.347-84.431c8.07-10.237,25.552-12.353,28.148-28.153
		C352.563,51.882,272.204,25.325,248.005,44.726z"/>
	<path style="fill:#B58A55;" d="M248.005,44.726c-14.29,6.53-2.991,40.203-8.166,47.019l-35.368,71.909
		c0,0-13.143,6.197-23.035,16.087c-16.612,16.613,7.987,44.283,31.525,56.255l98.503-189.013
		C287.849,36.934,260.473,34.729,248.005,44.726z"/>
	<path style="fill:#9B7842;" d="M240.988,89.269l-36.517,74.384c0,0,24.569,4.604,43.772,13.703
		c29.583,14.018,37.85,27.783,37.85,27.783l38.347-84.431C315.328,103.811,260.325,79.968,240.988,89.269z"/>
</g>
<path style="fill:#9B7842;" d="M204.472,163.654l35.368-71.909c0.381-0.501,0.664-1.162,0.882-1.933L204.472,163.654z"/>
<path style="fill:#A57F4C;" d="M240.988,89.269l-0.267,0.543c-0.219,0.771-0.501,1.432-0.882,1.933l-35.368,71.909
	c0,0,21.463,4.023,39.948,11.979l41.969-80.531C269.127,88.232,250.626,84.633,240.988,89.269z"/>
<path style="fill:#9B7842;" d="M364.23,354.143c-3.183,2.647-4.278-8.569-4.278-12.01c0-0.146-0.014-0.293-0.03-0.439
	c0.196,0.1,0.381,0.201,0.569,0.301l-7.369-16.46c-1.323,1.182-4.613-8.711-4.395-9.367c0.128-0.388,0.202-0.78,0.202-1.174
	c0-0.133-0.012-0.266-0.027-0.398c-1.139-10.179-45.842-18.365-100.823-18.365c-54.986,0-99.689,8.187-100.824,18.367
	c-0.015,0.132-0.027,0.264-0.027,0.396c0,0.394,0.073,0.786,0.202,1.174c0.46,1.387-2.931,10.771-4.67,9.106l-7.608,16.999
	c0.349-0.194,0.708-0.388,1.084-0.58c-0.016,0.146-0.03,0.293-0.03,0.439c0,3.791-1.344,14.7-4.732,11.622l-1.054,44.501h0.333
	c0,14.139,41.334,25.6,117.326,25.6c75.991,0,117.27-11.461,117.27-25.6L364.23,354.143z"/>
<path style="fill:#A37C4D;" d="M147.256,314.598c-0.015,0.132-0.027,0.264-0.027,0.396c0,0.394,0.073,0.786,0.202,1.174
	c0.46,1.387-2.931,10.771-4.67,9.106l-7.608,16.999c0.349-0.194,0.708-0.388,1.084-0.58c-0.016,0.146-0.03,0.293-0.03,0.439
	c0,3.791-1.344,14.7-4.732,11.622l-1.054,44.501h0.333c0,14.139,41.334,25.6,117.326,25.6V296.231
	C193.095,296.231,148.392,304.418,147.256,314.598z"/>
<g>
	<path style="fill:#AA814F;" d="M360.492,341.996c-0.188-0.101-0.374-0.201-0.569-0.301c0.016,0.146,0.03,0.293,0.03,0.439
		c0,11.497-50.086,20.815-111.872,20.815c-61.787,0-111.873-9.319-111.873-20.815c0-0.146,0.014-0.293,0.03-0.439
		c-0.376,0.192-0.735,0.386-1.084,0.58c-3.955,2.204-6.101,4.563-6.101,7.014c0,1.53,0.834,3.025,2.423,4.467
		c11.108,10.09,59.093,17.68,116.605,17.68c56.771,0,104.253-7.396,116.15-17.292c1.879-1.563,2.877-3.187,2.877-4.855
		C367.108,346.732,364.773,344.279,360.492,341.996z"/>
	<path style="fill:#AA814F;" d="M348.904,314.597c0.015,0.132,0.027,0.265,0.027,0.398c0,0.394-0.074,0.786-0.202,1.174
		c-1.374,4.14-9.961,7.917-23.456,10.9c-5.17,1.143-11.059,2.169-17.538,3.055c-16.708,2.285-37.332,3.635-59.654,3.635
		c-22.323,0-42.948-1.35-59.655-3.635c-6.479-0.886-12.368-1.912-17.538-3.055c-13.495-2.983-22.082-6.76-23.456-10.9
		c-0.129-0.388-0.202-0.78-0.202-1.174c0-0.132,0.012-0.265,0.027-0.396c-4.189,2.135-6.477,4.441-6.477,6.846
		c0,1.311,0.687,2.591,1.982,3.831c2.108,2.018,5.84,3.926,10.946,5.677c2.841,0.974,6.107,1.898,9.747,2.766
		c19.637,4.68,50.242,7.69,84.625,7.69s64.988-3.01,84.625-7.689c3.641-0.868,6.906-1.792,9.747-2.767
		c4.887-1.675,8.52-3.496,10.67-5.417c1.478-1.321,2.259-2.689,2.259-4.091C355.382,319.039,353.095,316.732,348.904,314.597z"/>
</g>
<g>
</g>
<g>
</g>
<g>
</g>
<g>
</g>
<g>
</g>
<g>
</g>
<g>
</g>
<g>
</g>
<g>
</g>
<g>
</g>
<g>
</g>
<g>
</g>
<g>
</g>
<g>
</g>
<g>
</g>
</svg>
