<?xml version="1.0" encoding="iso-8859-1"?>
<!-- Generator: Adobe Illustrator 19.0.0, SVG Export Plug-In . SVG Version: 6.00 Build 0)  -->
<svg version="1.1" id="Layer_1" xmlns="http://www.w3.org/2000/svg" xmlns:xlink="http://www.w3.org/1999/xlink" x="0px" y="0px"
	 viewBox="0 0 512 512" style="enable-background:new 0 0 512 512;" xml:space="preserve">
<path style="fill:#C0FCFF;" d="M325.818,131.879V23.273C325.818,10.42,315.398,0,302.545,0H23.273C10.42,0,0,10.42,0,23.273v465.455
	C0,501.58,10.42,512,23.273,512h279.273c12.853,0,23.273-10.42,23.273-23.273s-10.42-23.273-23.273-23.273V155.152
	C315.398,155.152,325.818,144.732,325.818,131.879z"/>
<path style="fill:#89D2E8;" d="M325.818,131.879V23.273C325.818,10.42,315.398,0,302.545,0H186.182v512h116.364
	c12.853,0,23.273-10.42,23.273-23.273s-10.42-23.273-23.273-23.273V155.152C315.398,155.152,325.818,144.732,325.818,131.879z"/>
<path style="fill:#7AC0DE;" d="M488.727,108.606H209.455c-12.853,0-23.273,10.42-23.273,23.273v356.848
	c0,12.853,10.42,23.273,23.273,23.273h279.273C501.58,512,512,501.58,512,488.727V131.879
	C512,119.026,501.58,108.606,488.727,108.606z"/>
<path style="fill:#5192C9;" d="M488.727,108.606H349.091V512h139.636C501.58,512,512,501.58,512,488.727V131.879
	C512,119.026,501.58,108.606,488.727,108.606z"/>
<rect x="209.455" y="131.879" style="fill:#C0FCFF;" width="279.273" height="186.151"/>
<rect x="349.091" y="131.879" style="fill:#89D2E8;" width="139.636" height="186.151"/>
<path style="fill:#B66D38;" d="M349.091,512c-12.853,0-23.273-10.42-23.273-23.273v-46.555c0-12.853,10.42-23.273,23.273-23.273
	c12.853,0,23.273,10.42,23.273,23.273v46.555C372.364,501.58,361.944,512,349.091,512z"/>
<path style="fill:#7AC0DE;" d="M488.727,108.606H209.455c-12.853,0-23.273,10.42-23.273,23.273V318.03
	c0,12.853,10.42,23.273,23.273,23.273H348.49c0.202,0.005,0.397,0.031,0.6,0.031c0.203,0,0.399-0.025,0.6-0.031h139.036
	c12.853,0,23.273-10.42,23.273-23.273V131.879C512,119.026,501.58,108.606,488.727,108.606z M465.455,201.697h-93.091v-46.545
	h93.091V201.697z M325.818,155.152v46.545h-93.091v-46.545H325.818z M232.727,248.242h93.091v46.514h-93.091V248.242z
	 M372.364,294.757v-46.514h93.091v46.514H372.364z"/>
<path style="fill:#AA3827;" d="M372.364,488.727v-46.555c0-12.853-10.42-23.273-23.273-23.273V512
	C361.944,512,372.364,501.58,372.364,488.727z"/>
<path style="fill:#5192C9;" d="M488.727,108.606H349.091v232.727c0.203,0,0.399-0.025,0.6-0.031h139.036
	c12.853,0,23.273-10.42,23.273-23.273V131.879C512,119.026,501.58,108.606,488.727,108.606z M465.455,294.757h-93.091v-46.514
	h93.091V294.757z M465.455,201.697h-93.091v-46.545h93.091V201.697z"/>
<path style="fill:#B66D38;" d="M116.364,512c-12.853,0-23.273-10.42-23.273-23.273v-46.555c0-12.853,10.42-23.273,23.273-23.273
	s23.273,10.42,23.273,23.273v46.555C139.636,501.58,129.216,512,116.364,512z"/>
<path style="fill:#AA3827;" d="M139.636,488.727v-46.555c0-12.853-10.42-23.273-23.273-23.273V512
	C129.216,512,139.636,501.58,139.636,488.727z"/>
<g>
</g>
<g>
</g>
<g>
</g>
<g>
</g>
<g>
</g>
<g>
</g>
<g>
</g>
<g>
</g>
<g>
</g>
<g>
</g>
<g>
</g>
<g>
</g>
<g>
</g>
<g>
</g>
<g>
</g>
</svg>
