<?xml version="1.0" encoding="UTF-8" standalone="no"?>
<svg
   viewBox="0 0 448 512"
   version="1.1"
   id="svg4"
   sodipodi:docname="bars.svg"
   inkscape:version="1.1.2 (1:1.1+202202050950+0a00cf5339)"
   xmlns:inkscape="http://www.inkscape.org/namespaces/inkscape"
   xmlns:sodipodi="http://sodipodi.sourceforge.net/DTD/sodipodi-0.dtd"
   xmlns="http://www.w3.org/2000/svg"
   xmlns:svg="http://www.w3.org/2000/svg">
  <defs
     id="defs8" />
  <sodipodi:namedview
     id="namedview6"
     pagecolor="#ffffff"
     bordercolor="#666666"
     borderopacity="1.0"
     inkscape:pageshadow="2"
     inkscape:pageopacity="0.0"
     inkscape:pagecheckerboard="0"
     showgrid="false"
     inkscape:zoom="1.0332031"
     inkscape:cx="224.06049"
     inkscape:cy="255.51607"
     inkscape:window-width="1366"
     inkscape:window-height="704"
     inkscape:window-x="0"
     inkscape:window-y="27"
     inkscape:window-maximized="1"
     inkscape:current-layer="svg4" />
  <!--! Font Awesome Pro 6.0.0-alpha3 by @fontawesome - https://fontawesome.com License - https://fontawesome.com/license (Commercial License) -->
  <path
     d="M416 224H31.1C14.33 224 0 238.3 0 256s14.33 32 31.1 32h384C433.7 288 448 273.7 448 256S433.7 224 416 224zM416 384H31.1C14.33 384 0 398.3 0 415.1S14.33 448 31.1 448h384C433.7 448 448 433.7 448 416S433.7 384 416 384zM416 64H31.1C14.33 64 0 78.33 0 95.1S14.33 128 31.1 128h384C433.7 128 448 113.7 448 96S433.7 64 416 64z"
     id="path2"
     style="fill:#b1976b;fill-opacity:1" />
</svg>
