<?xml version="1.0" encoding="UTF-8" standalone="no"?>
<svg
   viewBox="0 0 512 512"
   version="1.1"
   id="svg4"
   sodipodi:docname="clock.svg"
   inkscape:version="1.1.2 (1:1.1+202202050950+0a00cf5339)"
   xmlns:inkscape="http://www.inkscape.org/namespaces/inkscape"
   xmlns:sodipodi="http://sodipodi.sourceforge.net/DTD/sodipodi-0.dtd"
   xmlns="http://www.w3.org/2000/svg"
   xmlns:svg="http://www.w3.org/2000/svg">
  <defs
     id="defs8" />
  <sodipodi:namedview
     id="namedview6"
     pagecolor="#ffffff"
     bordercolor="#666666"
     borderopacity="1.0"
     inkscape:pageshadow="2"
     inkscape:pageopacity="0.0"
     inkscape:pagecheckerboard="0"
     showgrid="false"
     inkscape:zoom="1.0332031"
     inkscape:cx="256"
     inkscape:cy="255.51607"
     inkscape:window-width="1366"
     inkscape:window-height="704"
     inkscape:window-x="0"
     inkscape:window-y="27"
     inkscape:window-maximized="1"
     inkscape:current-layer="svg4" />
  <!--! Font Awesome Pro 6.0.0-alpha3 by @fontawesome - https://fontawesome.com License - https://fontawesome.com/license (Commercial License) -->
  <path
     d="M255.1 0c-141.4 0-256 114.6-256 256c0 141.4 114.6 256 256 256s255.1-114.6 255.1-256C511.1 114.6 397.4 0 255.1 0zM339.2 334.4C334.5 340.7 327.3 344 319.1 344c-5.016 0-10.06-1.562-14.39-4.812l-64-48C235.6 286.7 232 279.6 232 272V152C232 138.8 242.8 128 256 128s24 10.75 24 24v108l54.41 40.81C345 308.8 347.2 323.8 339.2 334.4z"
     id="path2"
     style="fill:#b1976b;fill-opacity:1" />
</svg>
