<?xml version="1.0" encoding="UTF-8" standalone="no"?>
<svg
   version="1.0"
   width="4000pt"
   height="1095pt"
   viewBox="0 0 4000 1095"
   preserveAspectRatio="xMidYMid meet"
   id="svg38"
   sodipodi:docname="logo.svg"
   inkscape:version="1.1.2 (1:1.1+202202050950+0a00cf5339)"
   xmlns:inkscape="http://www.inkscape.org/namespaces/inkscape"
   xmlns:sodipodi="http://sodipodi.sourceforge.net/DTD/sodipodi-0.dtd"
   xmlns="http://www.w3.org/2000/svg"
   xmlns:svg="http://www.w3.org/2000/svg">
  <defs
     id="defs42">
    <rect
       x="-3037.7854"
       y="-610.10638"
       width="3001.8169"
       height="2030.5886"
       id="rect4690" />
  </defs>
  <sodipodi:namedview
     id="namedview40"
     pagecolor="#ffffff"
     bordercolor="#666666"
     borderopacity="1.0"
     inkscape:pageshadow="2"
     inkscape:pageopacity="0.0"
     inkscape:pagecheckerboard="0"
     inkscape:document-units="pt"
     showgrid="false"
     inkscape:zoom="0.15"
     inkscape:cx="3796.6667"
     inkscape:cy="726.66667"
     inkscape:window-width="1366"
     inkscape:window-height="704"
     inkscape:window-x="0"
     inkscape:window-y="27"
     inkscape:window-maximized="1"
     inkscape:current-layer="text4688"
     width="4000pt" />
  <metadata
     id="metadata2">
Created by potrace 1.15, written by Peter Selinger 2001-2017
</metadata>
  <g
     transform="matrix(0.1,0,0,-0.1,0,1095)"
     fill="#000000"
     stroke="none"
     id="g36"
     style="fill:#b1976b;fill-opacity:1">
    <path
       d="m 9726,10922 -15,-29 70,-58 c 96,-80 174,-173 282,-335 190,-286 401,-576 498,-685 30,-33 90,-90 134,-125 268,-218 461,-370 471,-370 5,0 18,6 29,13 17,14 17,17 -4,106 -66,271 -196,594 -308,763 -155,234 -467,476 -802,624 -81,35 -321,124 -337,124 -2,0 -10,-13 -18,-28 z"
       id="path4"
       style="fill:#b1976b;fill-opacity:1" />
    <path
       d="m 2823,10826 c -425,-155 -810,-428 -996,-707 -107,-161 -218,-439 -286,-714 -47,-193 -47,-182 -14,-198 28,-14 28,-14 233,160 299,255 351,303 422,395 85,109 279,391 375,542 158,252 188,292 296,400 100,100 108,111 98,132 -13,30 -17,30 -128,-10 z"
       id="path6"
       style="fill:#b1976b;fill-opacity:1" />
    <path
       d="m 11016,10305 c -16,-24 -15,-28 75,-175 142,-235 165,-300 275,-780 64,-280 129,-512 173,-619 17,-41 31,-76 31,-79 0,-4 -20,26 -44,66 -135,219 -258,338 -565,552 -273,190 -495,390 -571,513 -32,52 -37,57 -64,52 -16,-3 -31,-7 -33,-9 -7,-6 37,-203 61,-272 52,-154 105,-241 272,-450 137,-171 213,-244 604,-579 330,-284 355,-308 479,-462 l 83,-102 25,16 c 18,12 23,22 19,38 -19,75 -26,280 -16,468 21,408 22,484 11,611 -26,302 -106,542 -252,761 -84,126 -261,296 -408,393 -68,45 -127,82 -131,82 -4,0 -15,-11 -24,-25 z"
       id="path8"
       style="fill:#b1976b;fill-opacity:1" />
    <path
       d="M 1553,10148 C 1150,9873 939,9520 891,9041 c -15,-146 -13,-251 9,-531 22,-265 26,-500 10,-594 -9,-54 -8,-60 13,-76 12,-10 25,-16 29,-14 3,2 47,57 96,122 105,137 200,231 527,525 311,278 408,379 547,564 155,206 224,350 262,543 30,159 31,147 -6,155 -20,5 -34,3 -36,-3 -2,-6 -25,-42 -53,-81 -106,-152 -258,-291 -573,-525 -262,-195 -404,-342 -513,-532 -20,-35 -38,-62 -40,-61 -1,2 11,37 27,78 41,106 101,345 165,660 30,151 67,317 81,369 29,110 92,248 188,409 l 68,114 -24,24 -24,23 z"
       id="path10"
       style="fill:#b1976b;fill-opacity:1" />
    <path
       d="m 11937,9375 c -18,-13 -18,-17 11,-92 65,-171 86,-324 71,-525 -6,-73 -23,-339 -38,-590 l -27,-457 26,-288 c 15,-158 25,-290 24,-292 -2,-2 -6,10 -9,25 -44,204 -136,445 -227,593 -55,90 -160,200 -564,593 -100,97 -200,200 -223,231 -35,46 -45,53 -67,49 -35,-6 -38,-19 -25,-104 25,-163 107,-399 200,-573 44,-83 225,-348 514,-753 194,-272 294,-456 393,-727 20,-55 29,-65 61,-65 17,0 24,8 29,28 55,242 143,558 219,792 113,348 143,499 152,775 12,354 -51,649 -206,960 -91,185 -256,436 -285,435 -6,0 -19,-7 -29,-15 z"
       id="path12"
       style="fill:#b1976b;fill-opacity:1" />
    <path
       d="M 678,9173 C 477,8890 367,8625 298,8255 c -17,-94 -17,-493 0,-600 30,-181 69,-326 172,-635 60,-179 134,-417 165,-530 31,-113 58,-211 61,-218 2,-8 16,-12 34,-10 29,3 33,8 59,83 101,288 185,439 519,940 358,534 426,665 502,963 17,68 42,241 35,249 -1,2 -15,5 -31,8 -26,5 -32,1 -64,-47 -19,-29 -179,-199 -356,-378 -353,-357 -397,-413 -485,-610 -49,-110 -103,-275 -138,-420 -14,-57 -19,-70 -16,-40 2,25 11,164 21,310 l 17,265 -37,450 c -21,248 -43,513 -49,590 -18,211 -2,353 63,539 11,33 19,60 18,61 -6,5 -47,25 -51,25 -2,0 -29,-35 -59,-77 z"
       id="path14"
       style="fill:#b1976b;fill-opacity:1" />
    <path
       d="m 4006,9058 c -8,-13 -400,-725 -871,-1583 l -857,-1560 91,-87 c 142,-136 365,-307 512,-392 l 46,-26 h 1093 1093 l 114,76 c 63,41 158,110 211,153 97,78 312,269 312,277 0,3 -6,15 -14,27 -33,52 -1656,3010 -1656,3018 0,5 449,9 1105,9 h 1105 v -38 c 0,-21 -49,-655 -110,-1408 -60,-753 -125,-1574 -145,-1824 -19,-250 -40,-495 -46,-545 -31,-251 -137,-432 -300,-512 l -66,-33 h -914 -914 l -50,-24 c -66,-30 -120,-91 -139,-157 -20,-65 -20,-63 0,-128 18,-61 69,-123 128,-154 l 41,-22 2635,-3 c 2920,-2 2685,-8 2768,63 54,47 83,110 83,178 0,92 -43,164 -130,215 l -46,27 -955,5 -955,5 -60,30 c -155,78 -262,262 -294,505 -6,47 -31,348 -56,670 -26,322 -92,1160 -148,1863 -57,703 -101,1280 -98,1283 2,2 499,4 1104,4 1043,0 1099,-1 1092,-17 -3,-10 -380,-697 -838,-1527 l -831,-1510 85,-79 c 434,-406 899,-649 1377,-718 124,-18 175,-21 327,-16 193,6 294,21 472,67 390,103 821,353 1136,659 l 88,86 -163,295 c -90,162 -483,874 -873,1583 L 8786,9080 H 6403 4020 Z m 788,-1622 c 427,-775 776,-1411 776,-1413 0,-2 -700,-3 -1556,-3 -856,0 -1554,4 -1552,8 10,25 1551,2822 1553,2820 2,-2 352,-637 779,-1412 z m 4786,-19 768,-1392 -1556,-3 c -855,-1 -1557,0 -1559,2 -2,2 346,640 773,1416 729,1324 779,1411 792,1391 8,-11 360,-648 782,-1414 z"
       id="path16"
       style="fill:#b1976b;fill-opacity:1" />
    <path
       d="m 12570,7548 c 0,-142 -15,-306 -39,-424 -19,-94 -56,-196 -193,-539 -98,-244 -198,-515 -227,-612 -12,-40 -37,-164 -56,-275 -34,-207 -55,-312 -60,-306 -1,2 1,46 5,98 13,177 -11,412 -61,600 -59,221 -128,367 -346,730 -186,311 -209,354 -243,448 -20,56 -25,62 -51,62 -15,0 -30,-3 -32,-7 -9,-15 13,-299 33,-448 56,-400 123,-691 247,-1070 129,-397 178,-593 204,-812 11,-91 7,-284 -6,-328 -5,-16 0,-23 24,-31 l 29,-12 68,106 c 84,130 203,294 318,438 372,462 558,964 573,1549 8,302 -17,529 -89,818 l -32,127 h -33 -33 z"
       id="path18"
       style="fill:#b1976b;fill-opacity:1" />
    <path
       d="M 114,7496 C 104,7465 70,7315 56,7240 9,6985 -4,6611 25,6380 90,5861 282,5426 631,5010 c 132,-158 331,-425 386,-519 1,-2 16,2 33,9 20,8 29,18 26,27 -4,8 -11,57 -17,108 -25,216 31,525 196,1070 83,278 119,431 164,705 43,260 61,429 68,621 l 6,166 -24,6 c -37,10 -37,10 -52,-40 -24,-82 -69,-169 -216,-428 C 1033,6442 965,6310 917,6180 812,5897 770,5565 805,5285 c 12,-96 -17,23 -65,262 -54,275 -89,380 -240,738 -237,561 -249,592 -274,712 -27,128 -46,304 -46,424 v 77 l -31,4 c -17,3 -32,0 -35,-6 z"
       id="path20"
       style="fill:#b1976b;fill-opacity:1" />
    <path
       d="m 11295,5735 c -99,-324 -157,-749 -190,-1405 -22,-425 -46,-653 -86,-814 -11,-43 -51,-157 -90,-253 -66,-167 -69,-176 -53,-194 9,-11 23,-19 30,-19 18,0 541,351 696,467 608,457 941,860 1098,1330 82,246 117,527 94,752 -7,60 -7,61 -38,61 -29,0 -33,-4 -50,-52 -33,-95 -121,-281 -178,-378 -97,-164 -178,-269 -333,-429 -146,-151 -241,-264 -356,-421 -84,-115 -269,-383 -345,-500 -85,-131 -145,-212 -152,-205 -3,3 9,25 27,50 73,102 135,274 166,465 20,124 23,450 6,600 -6,52 -43,268 -82,480 -39,212 -73,418 -77,459 -7,71 -9,75 -34,82 -28,7 -28,6 -53,-76 z"
       id="path22"
       style="fill:#b1976b;fill-opacity:1" />
    <path
       d="m 1428,5683 c -15,-4 -18,-16 -18,-71 0,-37 -27,-236 -59,-442 -77,-486 -84,-563 -78,-822 5,-224 16,-310 63,-468 27,-89 93,-231 123,-265 10,-11 26,-33 36,-50 36,-62 -54,46 -142,173 -340,484 -477,656 -704,887 -195,197 -235,245 -328,383 -69,102 -184,319 -226,425 -23,56 -31,67 -51,67 -36,0 -44,-29 -44,-155 0,-304 61,-565 195,-841 247,-506 685,-914 1570,-1459 87,-54 167,-100 177,-103 10,-2 27,3 37,12 18,17 16,23 -56,189 -41,95 -83,204 -93,242 -46,166 -79,418 -110,845 -46,610 -104,987 -205,1333 -39,131 -40,132 -87,120 z"
       id="path24"
       style="fill:#b1976b;fill-opacity:1" />
    <path
       d="m 10817,4389 c -94,-95 -178,-223 -277,-424 -69,-139 -103,-231 -264,-712 -102,-304 -206,-601 -231,-660 -102,-236 -251,-496 -336,-585 -42,-45 -46,-55 -26,-81 11,-16 21,-14 137,18 211,60 386,102 600,145 545,109 967,333 1335,711 268,275 455,586 591,981 l 23,68 -22,15 c -12,8 -24,15 -28,15 -4,0 -70,-73 -147,-162 -233,-272 -360,-384 -547,-484 -434,-231 -1156,-689 -1330,-843 -16,-14 -5,3 25,37 270,314 415,647 465,1069 55,465 82,635 130,823 l 24,95 -24,24 -24,24 z"
       id="path26"
       style="fill:#b1976b;fill-opacity:1" />
    <path
       d="m 1906,4321 c -17,-19 -17,-25 12,-138 52,-200 105,-493 132,-723 53,-459 231,-857 506,-1135 32,-33 49,-53 38,-45 -12,8 -67,48 -122,87 -262,189 -700,450 -1172,698 -312,164 -385,225 -746,633 -28,32 -32,34 -55,22 -13,-7 -25,-14 -26,-15 -6,-4 51,-156 98,-264 235,-529 614,-937 1112,-1196 257,-134 476,-206 772,-256 199,-33 381,-72 584,-124 74,-19 140,-35 146,-35 7,0 17,11 23,24 9,21 7,27 -20,52 -46,44 -140,173 -205,282 -122,208 -207,405 -373,867 -88,248 -179,500 -201,560 -50,136 -149,328 -237,460 -63,95 -216,265 -238,265 -6,0 -19,-9 -28,-19 z"
       id="path28"
       style="fill:#b1976b;fill-opacity:1" />
    <path
       d="m 9965,3078 c -113,-59 -257,-198 -553,-533 -238,-269 -507,-538 -624,-625 -162,-121 -487,-283 -655,-326 -70,-18 -73,-19 -73,-49 v -30 l 443,-88 c 243,-48 539,-110 657,-138 211,-50 218,-51 410,-56 149,-4 223,-1 313,11 387,54 764,214 1047,443 150,122 324,314 420,463 l 33,51 -21,22 -21,21 -58,-46 c -249,-195 -574,-325 -933,-373 -63,-8 -223,-19 -355,-25 -281,-11 -549,-44 -909,-111 -59,-11 -110,-18 -112,-16 -2,2 35,18 84,37 186,70 284,133 403,257 154,161 294,404 465,807 52,122 103,233 114,248 16,21 18,32 10,53 -12,30 -32,31 -85,3 z"
       id="path30"
       style="fill:#b1976b;fill-opacity:1" />
    <path
       d="m 2805,2979 c -5,-23 -2,-36 13,-52 11,-12 59,-109 106,-214 182,-409 307,-623 466,-796 117,-128 231,-200 421,-268 109,-39 151,-58 99,-46 -42,10 -371,57 -553,78 -106,13 -288,24 -472,29 -311,9 -401,17 -570,51 -240,49 -507,162 -690,294 l -90,64 -22,-21 c -27,-25 -27,-24 65,-146 331,-436 834,-717 1419,-793 113,-14 390,-14 479,2 38,6 182,40 319,74 210,54 1006,235 1029,235 4,0 6,14 4,32 -3,30 -5,32 -88,53 -121,31 -202,64 -394,161 -182,91 -221,116 -336,208 -82,66 -375,356 -708,704 -207,215 -333,325 -417,363 -57,26 -72,24 -80,-12 z"
       id="path32"
       style="fill:#b1976b;fill-opacity:1" />
    <path
       d="m 7020,1549 c -124,-13 -306,-50 -457,-93 l -121,-35 -69,20 c -91,26 -267,64 -378,81 -135,20 -483,17 -620,-6 -191,-31 -251,-51 -681,-232 -899,-377 -914,-382 -1233,-406 -302,-22 -592,25 -780,128 -60,33 -64,34 -82,18 -23,-20 -24,-33 -5,-48 7,-6 56,-45 107,-87 408,-332 852,-483 1316,-448 152,11 246,30 378,74 239,79 509,238 772,454 221,180 253,204 343,250 103,53 192,84 284,100 99,18 377,12 376,-8 -1,-3 -35,-22 -78,-41 C 5840,1155 5482,911 5190,654 5065,544 4787,262 4792,251 c 2,-5 62,-62 134,-129 l 132,-121 80,93 c 220,255 560,593 792,786 156,131 335,257 461,327 l 56,31 90,-47 c 112,-60 294,-183 438,-297 233,-185 567,-499 777,-731 62,-68 115,-122 119,-121 3,2 64,58 134,125 l 127,122 -61,69 c -69,78 -282,273 -411,378 -274,222 -594,426 -850,540 -47,21 -87,39 -89,41 -11,8 13,13 118,24 298,33 559,-57 821,-281 141,-121 401,-291 587,-384 236,-118 414,-164 668,-173 480,-18 895,142 1318,506 48,41 87,78 87,82 0,4 -8,17 -19,30 l -18,22 -31,-22 c -173,-123 -540,-190 -890,-162 -270,21 -259,18 -1227,396 -355,138 -409,156 -570,181 -115,18 -422,26 -545,13 z"
       id="path34"
       style="fill:#b1976b;fill-opacity:1" />
  </g>
  <g
     aria-label="Advokatska
Kancelarija"
     transform="matrix(0.75,0,0,0.75,3631.2169,467.40555)"
     id="text4688"
     style="font-size:600px;line-height:1.25;font-family:'Playfair Display';-inkscape-font-specification:'Playfair Display';white-space:pre;shape-inside:url(#rect4690);fill:#b1976b">
    <path
       d="m -2989.7852,-145.28371 q -22.2,31.2 -27,49.799997 -4.2,18.6 7.2,27 11.4,7.8 36,8.4 l -3,12 q -16.8,-1.2 -34.8,-1.2 -18,-0.6 -33.6,-0.6 -15,0 -25.2,0.6 -10.2,0 -19.8,1.2 l 3,-12 q 8.4,-1.8 17.4,-7.2 9,-6 19.8,-16.8 10.8,-10.8 22.8,-28.199997 l 258.6,-363.6 q 2.4,0 4.2,0 2.4,0 4.8,0 l 24,377.399997 q 1.8,21.6 10.8,30 9.6,7.8 18.6,8.4 l -2.4,12 q -12,-1.2 -30,-1.2 -18,-0.6 -35.4,-0.6 -21.6,0 -40.8,0.6 -19.2,0 -31.2,1.2 l 2.4,-12 q 28.8,-1.2 40.8,-10.2 12,-9.6 10.8,-40.199997 l -16.2,-296.4 4.2,-1.2 z m 48,-75.6 h 175.2 l -4.8,12 h -181.2 z"
       id="path50" />
    <path
       d="m -2438.9853,-99.083713 q -4.2,13.8 -3.6,25.8 1.2,11.4 14.4,11.4 12,0 22.2,-13.2 10.2,-13.8 21.6,-47.999997 l 7.2,-22.2 h 11.4 l -13.8,43.8 q -7.2,23.999997 -19.2,37.799997 -12,13.2 -25.2,18.6 -13.2,5.4 -25.2,5.4 -36,0 -37.8,-34.2 -0.6,-9.6 1.2,-22.2 2.4,-12.599997 6.6,-27.599997 l 86.4,-324.6 q 5.4,-20.4 -1.8,-30 -7.2,-9.6 -36.6,-9.6 l 3.6,-12.6 q 33,-0.6 58.2,-6.6 25.2,-6.6 48,-18 z m -134.4,40.2 q 15,0 33.6,-17.4 19.2,-18 38.4,-47.999997 19.8,-30.6 36,-69 16.8,-39 26.4,-80.4 l -9,64.8 q -23.4,61.8 -46.8,99 -22.8,37.199997 -46.8,53.999997 -23.4,16.2 -49.2,16.2 -18.6,0 -33,-8.4 -13.8,-9 -21.6,-26.4 -7.8,-17.4 -7.8,-44.399997 0,-28.8 9,-61.8 9.6,-33.6 27,-66 17.4,-32.4 41.4,-58.8 24.6,-27 54,-43.2 29.4,-16.2 62.4,-16.2 13.8,0 25.8,10.8 12,10.2 13.2,31.2 l -4.8,12 q -2.4,-21.6 -12,-30.6 -9.6,-9.6 -21.6,-9.6 -22.8,0 -44.4,15.6 -21,15.6 -38.4,41.4 -17.4,25.8 -30.6,57.6 -13.2,31.2 -20.4,64.2 -7.2,32.4 -7.2,61.2 0,26.399997 6.6,39.599997 6.6,12.6 19.8,12.6 z"
       id="path52" />
    <path
       d="m -2050.7854,-275.48371 q -16.8,-8.4 -31.2,-24.6 -14.4,-16.2 -12.6,-40.2 1.2,-13.8 9.6,-19.2 9,-6 16.8,-6 21,0 28.8,24 7.8,23.4 3.6,60.6 -4.2,35.4 -14.4,70.2 -10.2,34.8 -26.4,65.4 -15.6,30.6 -37.8,54.599997 -22.2,24 -49.8,37.8 -27.6,13.2 -61.2,13.2 -27,0 -42.6,-10.8 -15,-11.4 -21,-28.2 -6,-17.4 -4.8,-35.399997 2.4,-33.6 20.4,-72 18.6,-39 48.6,-78.6 30.6,-40.2 70.2,-77.4 -9.6,3.6 -20.4,10.2 -10.8,6 -21,12.6 -10.2,6 -19.8,10.8 -9.6,4.2 -18,4.2 -11.4,0 -19.8,-7.2 -7.8,-7.8 -18,-7.8 -9.6,0 -16.2,8.4 -6,7.8 -13.2,28.8 l -6.6,22.2 h -11.4 l 13.2,-43.8 q 10.2,-36 25.2,-48.6 15.6,-12.6 31.2,-12.6 11.4,0 19.2,6 7.8,6 15.6,12 8.4,5.4 19.8,5.4 14.4,0 27,-4.2 13.2,-4.8 23.4,-14.4 l 6,-11.4 12.6,6 q -24,29.4 -43.2,58.8 -18.6,29.4 -32.4,59.4 -13.2,30 -21.6,60.6 -7.8,30.6 -10.8,62.4 -2.4,34.799997 4.8,49.799997 7.8,15 21,15 28.2,0 52.2,-15 24,-15 42.6,-39.599997 19.2,-24.6 32.4,-53.4 13.8,-29.4 21,-57.6 7.8,-28.2 9,-50.4 z"
       id="path54" />
    <path
       d="m -1832.986,-352.88371 q -19.2,0 -37.2,15.6 -17.4,15 -32.4,41.4 -14.4,25.8 -25.8,58.2 -10.8,32.4 -16.8,67.2 -6,34.8 -6,66.6 0,26.999997 8.4,39.599997 9,12.6 25.8,12.6 19.2,0 36.6,-15 18,-15.6 33,-41.399997 15,-26.4 25.8,-58.8 10.8,-32.4 16.8,-66.6 6,-34.8 6,-67.2 0,-27.6 -8.4,-39.6 -8.4,-12.6 -25.8,-12.6 z m -169.8,219 q 0,-26.4 7.2,-57.6 7.2,-31.2 21.6,-61.8 14.4,-30.6 34.8,-55.8 21,-25.2 48.6,-40.2 27.6,-15.6 61.2,-15.6 37.2,0 59.4,23.4 22.8,22.8 22.8,70.8 0,26.4 -7.2,57.6 -7.2,31.2 -21.6,61.8 -14.4,30.6 -35.4,55.799997 -20.4,25.2 -48,40.8 -27.6,15 -61.2,15 -37.2,0 -60,-23.4 -22.2,-23.4 -22.2,-70.799997 z"
       id="path56" />
    <path
       d="m -1675.7867,-48.083713 h -52.2 l 118.8,-400.199997 q 6,-20.4 -1.8,-30 -7.2,-9.6 -36.6,-9.6 l 3.6,-12.6 q 33,-0.6 59.4,-6.6 26.4,-6.6 48.6,-18 z m 154.8,-38.4 q -2.4,13.2 0,19.2 2.4,5.4 12,5.4 12,0 22.2,-13.2 10.8,-13.8 22.2,-47.999997 l 7.2,-22.2 h 11.4 l -14.4,43.8 q -7.8,23.999997 -19.2,37.799997 -10.8,13.2 -24.6,18.6 -13.2,5.4 -27.6,5.4 -19.2,0 -31.2,-13.2 -12,-13.8 -5.4,-43.8 l 10.8,-51.599997 q 7.2,-34.8 -7.8,-51 -14.4,-16.8 -64.8,-20.4 v -2.4 q 22.8,-1.8 46.2,0 24,1.8 42.6,10.2 18.6,7.8 28.2,24 9.6,15.6 4.2,41.4 z m 52.8,-265.799997 q -7.2,0 -12.6,2.4 -4.8,2.4 -9.6,6 -11.4,9 -19.2,24.6 -7.8,15 -15.6,32.4 -7.8,17.4 -19.2,33 -11.4,15 -30,24.6 -18.6,9.6 -48.6,9 l -6,0.6 1.2,-6.6 q 29.4,-1.8 46.8,-12 18,-10.2 28.2,-25.2 10.8,-15 18,-31.2 7.2,-16.8 15,-31.8 7.8,-15 20.4,-24.6 10.8,-8.4 19.2,-10.8 9,-3 16.8,-3 21,0 28.8,10.8 7.8,10.2 6.6,24.6 -0.6,7.2 -4.2,16.2 -3.6,9 -11.4,15.6 -7.2,6.6 -19.2,6.6 -13.2,0 -18.6,-7.8 -5.4,-8.4 -4.8,-18 0.6,-8.4 6,-18 5.4,-10.2 13.2,-17.4 -0.6,0 -0.6,0 0,0 -0.6,0 z"
       id="path58" />
    <path
       d="m -1334.3869,-58.883713 q 14.4,0 33,-18 18.6,-18.6 37.8,-49.799997 19.2,-31.2 35.4,-70.8 16.2,-39.6 25.8,-82.2 l -10.2,64.8 q -22.8,63.6 -45.6,102.6 -22.8,38.399997 -46.2,55.799997 -23.4,16.8 -47.4,16.8 -28.2,0 -42.6,-20.4 -13.8,-20.4 -13.8,-52.199997 0,-28.8 9.6,-62.4 9.6,-34.2 26.4,-67.8 17.4,-33.6 39.6,-61.2 22.2,-27.6 48,-44.4 26.4,-16.8 53.4,-16.8 21,0 31.8,21 11.4,20.4 4.8,57.6 l -6.6,3.6 q 4.2,-31.8 -4.2,-51 -8.4,-19.8 -27.6,-19.8 -15.6,0 -33,15.6 -16.8,15 -33,41.4 -15.6,25.8 -28.8,58.2 -12.6,32.4 -20.4,67.2 -7.2,34.2 -7.2,66 0,25.799997 5.4,35.999997 6,10.2 15.6,10.2 z m 151.2,-297.599997 q 14.4,-0.6 28.8,-2.4 14.4,-1.8 26.4,-6 l -75,265.199997 q -1.2,5.4 -3.6,14.4 -1.8,8.4 0,15.6 2.4,7.2 12.6,7.2 12,0 23.4,-13.2 11.4,-13.2 22.8,-47.999997 l 7.2,-22.2 h 11.4 l -15,43.8 q -8.4,23.999997 -20.4,37.799997 -11.4,13.2 -24,18.6 -12.6,6 -24.6,6 -23.4,0 -33,-15.6 -7.8,-13.8 -4.2,-31.8 3.6,-18.599997 8.4,-37.199997 z"
       id="path60" />
    <path
       d="m -874.78772,-356.48371 -1.8,12 h -186.59998 l 3,-12 z m -152.39998,257.399997 q -5.4,19.8 2.4,28.8 8.4,8.4 21.6,8.4 13.19998,0 26.39998,-11.4 13.8,-11.4 27,-48.599997 l 8.4,-23.4 h 11.4 l -12.6,37.8 q -13.2,38.999997 -34.2,53.399997 -20.4,14.4 -47.99998,14.4 -24.6,0 -37.8,-10.2 -12.6,-10.8 -15,-30 -2.4,-19.2 4.8,-43.799997 l 92.99998,-324 q 14.4,-0.6 28.2,-2.4 14.4,-1.8 25.8,-6 z"
       id="path62" />
    <path
       d="m -862.78848,-57.083713 q 4.8,2.4 10.2,4.2 6,1.2 17.4,1.2 26.4,0 43.2,-15.6 17.4,-16.2 17.4,-46.199997 0,-18.6 -7.2,-36.6 -6.6,-18.6 -24,-42.6 -13.8,-19.2 -26.4,-39 -12.6,-20.4 -12.6,-48 0,-25.8 12.6,-44.4 12.6,-19.2 33.6,-30 21.6,-10.8 46.8,-10.8 17.4,0 34.2,4.2 16.8,4.2 27.6,15.6 11.4,10.8 11.4,32.4 0,5.4 -3,13.2 -2.4,7.2 -8.4,12.6 -6,5.4 -16.2,5.4 -9.6,0 -16.8,-6.6 -7.2,-7.2 -7.2,-18.6 0,-10.8 4.2,-20.4 4.8,-10.2 12.6,-19.8 -11.4,-7.2 -30,-7.2 -22.2,0 -37.2,15 -15,15 -15,42 0,13.8 4.2,24.6 4.2,10.2 12,21.6 8.4,11.4 19.8,28.8 15,22.8 25.2,43.8 10.2,21 10.2,44.4 0,27.6 -14.4,49.199997 -13.8,21 -37.2,33 -23.4,12 -51.6,12 -20.4,0 -39,-6 -18.6,-6 -30.6,-18.6 -11.4,-13.2 -11.4,-34.8 0,-8.399997 5.4,-17.399997 4.8,-9.6 18,-9.6 14.4,0 20.4,12 6,11.4 6,25.799997 0,9.6 -1.8,17.4 -1.2,7.2 -2.4,13.8 z"
       id="path64" />
    <path
       d="m -622.78936,-48.083713 h -52.2 l 118.8,-400.199997 q 6,-20.4 -1.8,-30 -7.2,-9.6 -36.6,-9.6 l 3.6,-12.6 q 33,-0.6 59.4,-6.6 26.4,-6.6 48.6,-18 z m 154.8,-38.4 q -2.4,13.2 0,19.2 2.4,5.4 12,5.4 12,0 22.2,-13.2 10.8,-13.8 22.2,-47.999997 l 7.2,-22.2 h 11.4 l -14.4,43.8 q -7.8,23.999997 -19.2,37.799997 -10.8,13.2 -24.6,18.6 -13.2,5.4 -27.6,5.4 -19.2,0 -31.2,-13.2 -12,-13.8 -5.4,-43.8 l 10.8,-51.599997 q 7.2,-34.8 -7.8,-51 -14.4,-16.8 -64.8,-20.4 v -2.4 q 22.8,-1.8 46.2,0 24,1.8 42.6,10.2 18.6,7.8 28.2,24 9.6,15.6 4.2,41.4 z m 52.8,-265.799997 q -7.2,0 -12.6,2.4 -4.8,2.4 -9.6,6 -11.4,9 -19.2,24.6 -7.8,15 -15.6,32.4 -7.8,17.4 -19.2,33 -11.4,15 -30,24.6 -18.6,9.6 -48.6,9 l -6,0.6 1.2,-6.6 q 29.4,-1.8 46.8,-12 18,-10.2 28.2,-25.2 10.8,-15 18,-31.2 7.2,-16.8 15,-31.8 7.8,-15 20.4,-24.6 10.8,-8.4 19.2,-10.8 9,-3 16.8,-3 21,0 28.8,10.8 7.8,10.2 6.6,24.6 -0.6,7.2 -4.2,16.2 -3.6,9 -11.4,15.6 -7.2,6.6 -19.2,6.6 -13.2,0 -18.6,-7.8 -5.4,-8.4 -4.8,-18 0.6,-8.4 6,-18 5.4,-10.2 13.2,-17.4 -0.6,0 -0.6,0 0,0 -0.6,0 z"
       id="path66" />
    <path
       d="m -281.38984,-58.883713 q 14.4,0 33,-18 18.6,-18.6 37.8,-49.799997 19.2,-31.2 35.4,-70.8 16.2,-39.6 25.8,-82.2 l -10.2,64.8 q -22.8,63.6 -45.6,102.6 -22.8,38.399997 -46.2,55.799997 -23.4,16.8 -47.4,16.8 -28.2,0 -42.6,-20.4 -13.8,-20.4 -13.8,-52.199997 0,-28.8 9.6,-62.4 9.6,-34.2 26.4,-67.8 17.4,-33.6 39.6,-61.2 22.2,-27.6 48,-44.4 26.4,-16.8 53.4,-16.8 21,0 31.8,21 11.4,20.4 4.8,57.6 l -6.6,3.6 q 4.2,-31.8 -4.2,-51 -8.4,-19.8 -27.6,-19.8 -15.6,0 -33,15.6 -16.8,15 -33,41.4 -15.6,25.8 -28.8,58.2 -12.6,32.4 -20.4,67.2 -7.2,34.2 -7.2,66 0,25.799997 5.4,35.999997 6,10.2 15.6,10.2 z m 151.2,-297.599997 q 14.4,-0.6 28.8,-2.4 14.399996,-1.8 26.399996,-6 l -74.999996,265.199997 q -1.2,5.4 -3.6,14.4 -1.8,8.4 0,15.6 2.4,7.2 12.6,7.2 12,0 23.4,-13.2 11.4,-13.2 22.799996,-47.999997 l 7.2,-22.2 h 11.4 l -15,43.8 q -8.4,23.999997 -20.399996,37.799997 -11.4,13.2 -24,18.6 -12.6,6 -24.6,6 -23.4,0 -33,-15.6 -7.8,-13.8 -4.2,-31.8 3.6,-18.599997 8.4,-37.199997 z"
       id="path68" />
    <path
       d="m -2938.1852,638.31629 q -5.4,21.6 -4.8,32.4 0.6,10.8 10.2,14.4 9.6,3.6 30,4.8 l -2.4,12 q -13.8,-1.2 -34.8,-1.2 -20.4,-0.6 -41.4,-0.6 -23.4,0 -43.2,0.6 -19.8,0 -33,1.2 l 3,-12 q 19.8,-1.2 30.6,-4.8 11.4,-3.6 18,-14.4 6.6,-10.8 12,-32.4 l 79.2,-297.6 q 6,-22.2 4.8,-32.4 -1.2,-10.8 -10.8,-14.4 -9,-4.2 -29.4,-4.8 l 3,-12 q 12,0.6 32.4,1.2 20.4,0.6 43.8,0.6 21,0 41.4,-0.6 21,-0.6 35.4,-1.2 l -3,12 q -20.4,0.6 -31.8,4.8 -11.4,3.6 -18,14.4 -6,10.2 -12,32.4 z m 199.8,39 q 15.6,0 25.8,-11.4 10.2,-11.4 18.6,-35.4 l 10.2,-30.6 h 12 l -15.6,46.2 q -11.4,33 -29.4,48.6 -18,15.6 -43.8,15.6 -28.2,0 -40.8,-18 -12,-18 -9.6,-51.6 l 4.2,-67.8 q 1.8,-31.2 -1.2,-48 -2.4,-16.8 -9,-25.8 -6,-9 -16.2,-16.2 l 1.2,-6 q 17.4,3.6 31.8,7.8 15,4.2 25.8,13.8 10.8,9 16.2,28.2 5.4,18.6 4.2,52.2 l -2.4,67.8 q -0.6,13.2 1.8,22.2 3,8.4 16.2,8.4 z m -86.4,-191.4 q -33,9 -45,6 -11.4,-3 -11.4,-11.4 0,-8.4 11.4,-11.4 12,-3 45,6 z m 148.8,-196.2 q -11.4,10.2 -19.8,28.8 -7.8,18 -15,39.6 -7.2,21.6 -16.2,43.8 -9,21.6 -22.8,39.6 -13.2,18 -33.6,29.4 -19.8,10.8 -49.2,10.2 l 1.2,-6 q 33,-3 52.8,-19.2 19.8,-16.2 31.8,-40.2 12,-24 20.4,-49.8 8.4,-26.4 17.4,-48.6 9,-22.2 24,-34.8 10.2,-8.4 19.2,-10.8 9,-3 16.8,-3 21,0 28.8,10.8 7.8,10.2 6.6,24.6 -0.6,7.2 -4.2,16.2 -3.6,9 -11.4,15.6 -7.2,6.6 -19.2,6.6 -13.2,0 -18.6,-7.8 -5.4,-8.4 -4.8,-18 0.6,-8.4 6,-18 5.4,-10.2 13.2,-17.4 -0.6,0 -1.2,0 0,0 -0.6,0 -7.8,0.6 -12.6,3 -4.2,1.8 -9,5.4 z"
       id="path70" />
    <path
       d="m -2565.5859,691.11629 q 14.4,0 33,-18 18.6,-18.6 37.8,-49.8 19.2,-31.2 35.4,-70.8 16.2,-39.6 25.8,-82.2 l -10.2,64.8 q -22.8,63.6 -45.6,102.6 -22.8,38.4 -46.2,55.8 -23.4,16.8 -47.4,16.8 -28.2,0 -42.6,-20.4 -13.8,-20.4 -13.8,-52.2 0,-28.8 9.6,-62.4 9.6,-34.2 26.4,-67.8 17.4,-33.6 39.6,-61.2 22.2,-27.6 48,-44.4 26.4,-16.8 53.4,-16.8 21,0 31.8,21 11.4,20.4 4.8,57.6 l -6.6,3.6 q 4.2,-31.8 -4.2,-51 -8.4,-19.8 -27.6,-19.8 -15.6,0 -33,15.6 -16.8,15 -33,41.4 -15.6,25.8 -28.8,58.2 -12.6,32.4 -20.4,67.2 -7.2,34.2 -7.2,66 0,25.8 5.4,36 6,10.2 15.6,10.2 z m 151.2,-297.6 q 14.4,-0.6 28.8,-2.4 14.4,-1.8 26.4,-6 l -75,265.2 q -1.2,5.4 -3.6,14.4 -1.8,8.4 0,15.6 2.4,7.2 12.6,7.2 12,0 23.4,-13.2 11.4,-13.2 22.8,-48 l 7.2,-22.2 h 11.4 l -15,43.8 q -8.4,24 -20.4,37.8 -11.4,13.2 -24,18.6 -12.6,6 -24.6,6 -23.4,0 -33,-15.6 -7.8,-13.8 -4.2,-31.8 3.6,-18.6 8.4,-37.2 z"
       id="path72" />
    <path
       d="m -2257.7866,701.91629 h -52.2 l 72,-257.4 q 2.4,-7.2 3.6,-15.6 1.8,-9 -0.6,-15 -2.4,-6.6 -12,-6.6 -13.2,0 -23.4,13.2 -10.2,12.6 -22.8,48 l -7.8,22.2 h -11.4 l 15,-43.8 q 13.2,-37.8 32.4,-49.8 19.8,-12 39,-12 18,0 25.8,7.8 8.4,7.8 9,20.4 1.2,12 -1.8,27 -2.4,14.4 -6,28.8 z m 27.6,-124.8 q 21,-54 40.8,-90.6 19.8,-36.6 39,-58.8 19.2,-22.8 39,-32.4 20.4,-10.2 42,-10.2 28.2,0 38.4,13.8 10.8,13.2 9.6,34.2 -1.2,20.4 -8.4,42.6 l -58.2,175.2 q -5.4,16.2 -4.8,27 1.2,10.2 14.4,10.2 11.4,0 22.2,-12.6 11.4,-12.6 24,-48.6 l 7.8,-22.2 h 11.4 l -15,43.8 q -8.4,25.2 -21,38.4 -12,13.2 -25.8,18 -13.2,5.4 -25.8,5.4 -14.4,0 -24,-4.8 -9,-4.8 -13.8,-12.6 -6.6,-10.8 -4.2,-28.2 2.4,-17.4 9.6,-38.4 l 57,-171.6 q 3,-8.4 4.8,-19.8 2.4,-12 -0.6,-21 -3,-9.6 -17.4,-9.6 -14.4,0 -30.6,12.6 -16.2,12.6 -33.6,36 -17.4,22.8 -34.2,55.2 -16.8,31.8 -32.4,70.8 -15,38.4 -27.6,82.2 z"
       id="path74" />
    <path
       d="m -1789.1867,397.11629 q -22.8,0 -45.6,18.6 -22.2,18.6 -40.8,51 -18.6,32.4 -30,73.8 -10.8,41.4 -10.8,87 0,30.6 11.4,44.4 12,13.2 30.6,13.2 21.6,0 44.4,-13.2 22.8,-13.2 45.6,-46.8 l 12,4.8 q -11.4,19.8 -30,38.4 -18.6,18.6 -42,30.6 -22.8,11.4 -48.6,11.4 -36,0 -57.6,-22.2 -21.6,-22.2 -21.6,-66 0,-27.6 7.8,-59.4 8.4,-32.4 23.4,-63.6 15.6,-31.8 37.8,-57 22.2,-25.8 50.4,-41.4 28.2,-15.6 61.8,-15.6 26.4,0 45.6,13.8 19.2,13.2 19.2,37.2 0,11.4 -5.4,22.8 -4.8,10.8 -14.4,18 -9.6,7.2 -22.8,7.2 -12.6,0 -18.6,-6.6 -6,-7.2 -6,-16.8 0,-17.4 13.8,-29.4 13.8,-12.6 31.2,-15.6 -6,-8.4 -15.6,-13.2 -9.6,-5.4 -25.2,-5.4 z"
       id="path76" />
    <path
       d="m -1673.3871,565.71629 q 33.6,-11.4 60.6,-22.2 27.6,-11.4 43.8,-24 21.6,-17.4 34.2,-42 12.6,-24.6 12.6,-54 0,-17.4 -2.4,-22.2 -2.4,-4.8 -7.2,-4.8 -15,0 -32.4,13.2 -17.4,13.2 -34.2,36.6 -16.8,22.8 -31.2,52.2 -13.8,29.4 -22.2,63 -8.4,33 -8.4,66 0,30.6 11.4,44.4 11.4,13.2 30,13.2 21.6,0 45.6,-13.2 24,-13.2 46.8,-46.8 l 9.6,4.8 q -11.4,19.8 -30,38.4 -18.6,18.6 -42,30.6 -22.8,11.4 -48.6,11.4 -24,0 -42,-9.6 -18,-9.6 -27.6,-28.2 -9.6,-19.2 -9.6,-46.8 0,-25.8 9.6,-57.6 9.6,-32.4 27,-64.2 18,-32.4 42.6,-59.4 24.6,-27 54.6,-43.2 30,-16.2 64.2,-16.2 18.6,0 31.2,10.2 13.2,9.6 13.2,29.4 0,24 -14.4,45 -13.8,20.4 -37.2,37.8 -22.8,16.8 -49.8,30 -27,13.2 -52.8,22.8 -25.8,9.6 -45.6,15.6 z"
       id="path78" />
    <path
       d="m -1405.1878,650.91629 q -4.8,17.4 -3,27.6 1.8,9.6 13.2,9.6 12,0 22.2,-13.2 10.8,-13.8 22.8,-48 l 7.8,-22.2 h 11.4 l -15,43.8 q -7.8,22.8 -19.2,36.6 -10.8,13.2 -24,19.2 -13.2,6 -28.8,6 -19.8,0 -29.4,-7.8 -9,-7.2 -11.4,-19.8 -1.8,-12.6 0.6,-27 3,-15 7.2,-29.4 l 97.8,-324.6 q 6,-20.4 -1.2,-30 -7.2,-9.6 -36.6,-9.6 l 4.2,-12.6 q 33,-0.6 58.2,-6.6 25.2,-6.6 48.6,-18 z"
       id="path80" />
    <path
       d="m -1220.9887,691.11629 q 14.4,0 33,-18 18.6,-18.6 37.8,-49.8 19.2,-31.2 35.4,-70.8 16.2,-39.6 25.8,-82.2 l -10.2,64.8 q -22.8,63.6 -45.6,102.6 -22.8,38.4 -46.2,55.8 -23.4,16.8 -47.4,16.8 -28.2,0 -42.6,-20.4 -13.8,-20.4 -13.8,-52.2 0,-28.8 9.6,-62.4 9.6,-34.2 26.4,-67.8 17.4,-33.6 39.6,-61.2 22.2,-27.6 48,-44.4 26.4,-16.8 53.4,-16.8 21,0 31.8,21 11.4,20.4 4.8,57.6 l -6.6,3.6 q 4.2,-31.8 -4.2,-51 -8.4,-19.8 -27.6,-19.8 -15.6,0 -33,15.6 -16.8,15 -33,41.4 -15.6,25.8 -28.8,58.2 -12.6,32.4 -20.4,67.2 -7.2,34.2 -7.2,66 0,25.8 5.4,36 6,10.2 15.6,10.2 z m 151.2,-297.6 q 14.4,-0.6 28.8,-2.4 14.4,-1.8 26.4,-6 l -75,265.2 q -1.2,5.4 -3.6,14.4 -1.8,8.4 0,15.6 2.4,7.2 12.6,7.2 12,0 23.4,-13.2 11.4,-13.2 22.8,-48 l 7.2,-22.2 h 11.4 l -15,43.8 q -8.4,24 -20.4,37.8 -11.4,13.2 -24,18.6 -12.6,6 -24.6,6 -23.4,0 -33,-15.6 -7.8,-13.8 -4.2,-31.8 3.6,-18.6 8.4,-37.2 z"
       id="path82" />
    <path
       d="m -913.7894,701.91629 h -52.2 l 72,-257.4 q 6,-20.4 3.6,-28.8 -1.8,-8.4 -12,-8.4 -13.2,0 -24,13.8 -10.8,13.8 -22.8,47.4 l -7.8,22.2 h -11.4 l 15,-43.8 q 9,-25.2 21,-38.4 12.6,-13.2 25.8,-18 13.8,-5.4 25.8,-5.4 18,0 25.2,7.8 7.8,7.8 8.4,20.4 1.2,12.6 -1.8,27.6 -2.4,14.4 -6,28.2 z m 154.2,-301.8 q -13.8,0 -28.8,13.2 -14.4,12.6 -30,37.2 -15,24 -30.6,58.2 -15,33.6 -30,75 -14.4,41.4 -28.2,89.4 l 15,-76.8 q 19.8,-58.8 36.6,-99 17.4,-40.2 34.2,-64.8 16.8,-25.2 34.2,-36 18,-11.4 37.8,-11.4 16.8,0 25.8,9.6 9.6,9.6 9.6,24.6 0,12 -6,22.2 -6,9.6 -15.6,15.6 -9,5.4 -20.4,5.4 -10.2,0 -17.4,-5.4 -6.6,-6 -6.6,-16.2 0,-9.6 3.6,-16.8 3.6,-7.8 9.6,-13.2 6,-5.4 13.8,-8.4 -1.2,-1.2 -3,-1.8 -1.2,-0.6 -3.6,-0.6 z"
       id="path84" />
    <path
       d="m -617.39028,284.31629 q 3,-15.6 15.6,-27 13.2,-11.4 28.2,-11.4 15.6,0 24,11.4 9,11.4 6,27 -3,15.6 -16.2,27 -12.6,11.4 -28.2,11.4 -15,0 -24,-11.4 -8.4,-11.4 -5.4,-27 z m -18.6,160.2 q 12.6,-37.2 -8.4,-37.2 -13.8,0 -24.6,15 -10.8,15 -22.8,46.2 l -8.4,22.2 h -11.4 l 15.6,-43.8 q 9,-25.2 21.6,-38.4 12.6,-13.2 26.4,-18 14.4,-5.4 26.4,-5.4 19.2,0 28.2,7.8 9,7.8 10.8,20.4 1.8,12.6 -1.2,27.6 -3,14.4 -7.8,28.2 l -64.2,181.8 q -6,17.4 -4.2,27.6 2.4,9.6 13.8,9.6 12,0 22.8,-13.2 10.8,-13.2 24,-48 l 8.4,-22.2 h 11.4 l -15.6,43.8 q -8.4,23.4 -20.4,37.2 -12,13.2 -25.8,18.6 -13.8,6 -27.6,6 -25.8,0 -34.8,-12 -9,-12 -6.6,-31.2 2.4,-19.2 10.2,-40.8 z"
       id="path86" />
    <path
       d="m -631.79131,814.71629 2.4,-9 q 37.8,-1.8 64.2,-32.4 25.8,-30 39,-82.8 l 69,-246 q 6,-20.4 3.6,-28.8 -1.8,-8.4 -12.6,-8.4 -11.4,0 -22.8,13.8 -10.8,13.2 -22.8,47.4 l -7.8,22.2 h -11.4 l 14.4,-43.8 q 12,-36.6 31.8,-49.2 19.8,-12.6 42,-12.6 25.2,0 33,12.6 8.4,12 6,31.2 -1.8,19.2 -7.8,40.2 l -46.2,163.8 q -7.2,30 -18.6,57 -10.8,27 -26.4,49.2 -15,22.2 -34.8,39 -19.2,16.2 -43.2,26.4 -24.6,10.2 -51,10.2 z m 194.4,-525.6 q 0,-15.6 12.6,-30.6 12.6,-15.6 31.8,-15.6 13.8,0 22.2,9 8.4,8.4 8.4,21.6 0,16.2 -13.2,31.2 -12.6,15 -31.8,15 -13.2,0 -21.6,-8.4 -8.4,-9 -8.4,-22.2 z"
       id="path88" />
    <path
       d="m -304.79194,691.11629 q 14.4,0 33,-18 18.6,-18.6 37.8,-49.8 19.2,-31.2 35.4,-70.8 16.2,-39.6 25.8,-82.2 l -10.2,64.8 q -22.8,63.6 -45.6,102.6 -22.8,38.4 -46.2,55.8 -23.4,16.8 -47.4,16.8 -28.2,0 -42.6,-20.4 -13.8,-20.4 -13.8,-52.2 0,-28.8 9.6,-62.4 9.6,-34.2 26.4,-67.8 17.4,-33.6 39.6,-61.2 22.2,-27.6 48,-44.4 26.4,-16.8 53.4,-16.8 21,0 31.8,21 11.4,20.4 4.8,57.6 l -6.6,3.6 q 4.2,-31.8 -4.2,-51 -8.4,-19.8 -27.6,-19.8 -15.6,0 -33,15.6 -16.8,15 -33,41.4 -15.6,25.8 -28.8,58.2 -12.6,32.4 -20.4,67.2 -7.2,34.2 -7.2,66 0,25.8 5.4,36 6,10.2 15.6,10.2 z m 151.2,-297.6 q 14.4,-0.6 28.8,-2.4 14.4,-1.8 26.399997,-6 l -74.999997,265.2 q -1.2,5.4 -3.6,14.4 -1.8,8.4 0,15.6 2.4,7.2 12.6,7.2 12,0 23.4,-13.2 11.4,-13.2 22.8,-48 l 7.2,-22.2 h 11.399997 l -14.999997,43.8 q -8.4,24 -20.4,37.8 -11.4,13.2 -24,18.6 -12.6,6 -24.6,6 -23.4,0 -33,-15.6 -7.8,-13.8 -4.2,-31.8 3.6,-18.6 8.4,-37.2 z"
       id="path90" />
  </g>
</svg>
